<?xml version="1.0" encoding="utf-8"?>
<!-- Generator: Adobe Illustrator 22.0.1, SVG Export Plug-In . SVG Version: 6.00 Build 0)  -->
<svg version="1.1" id="Layer_10" xmlns="http://www.w3.org/2000/svg" xmlns:xlink="http://www.w3.org/1999/xlink" x="0px" y="0px"
	 viewBox="0 0 725.3 328" style="enable-background:new 0 0 725.3 328;" xml:space="preserve">
<style type="text/css">
	.st0{fill:#953D96;}
	.st1{fill:#FFF100;}
	.st2{fill:#722872;}
	.st3{fill:url(#SVGID_1_);}
	.st4{fill:url(#SVGID_2_);}
	.st5{fill:#FFFFFF;}
</style>
<path class="st0" d="M545.6,102.3c-3.8,0-7.5,0.1-11,0.4l1.4-10.9l97.7,0L639.2,8H437.8l-9.2,69.8h-80.8c-5.2-1.9-10.8-2.8-16.7-2.8
	c-11.4,0-21.9,3.7-29.8,10.6c-6.8-7.1-16.4-10.7-28.6-10.7c-5.6,0-10.9,0.8-15.7,2.4l-4.4-0.7c-2.1-0.3-3.9-0.5-6-0.5
	c-3.8,0-7.4,0.6-10.8,1.8H193v1.4c-4.7-2.1-11.4-4.2-20-4.2c-7.2,0-14.1,1.5-20.2,4.4v-23H98.8v55.3l-1.7-2.6l-31.1,21.8l5.8,10.5
	c1.9,3.4,7,12.6,18.2,18.4c8,4.1,15.8,4.6,21.1,4.6c13,0,23.8-4.2,31.5-12.1c2.2,1.9,4.7,3.6,7.3,5.1c-15,9.5-24.5,26.7-24.5,44.9
	c0,25.3,18,51,52.4,51c10.7,0,20.3-2.3,28.5-6.7c5.6,4.2,12.4,6.4,20,6.4c4,0,7.8-0.6,11.2-1.7h40.9c4.5,1.4,9.7,2.1,15.4,2.1
	c6.7,0,12.8-1,18.2-2.9v0.8h88.1v-20.1l4.3,10.3c6.3,15.3,15,36.2,37.1,53.2c21.4,16.6,53.4,26.1,87.9,26.1
	c42.6,0,77.3-13,100.5-37.6c18.7-19.9,29.4-47.4,29.4-75.5C659.3,146.6,611.5,102.3,545.6,102.3z M194.8,205.3L194.8,205.3
	c-1.9,1.8-4.9,4.5-8.6,4.5c-5.5,0-6.1-6.3-6.1-9.1c0-3.7,0.9-9.8,6.7-9.8c2.2,0,2.8,0.4,5.3,3.6l6.2,7.7L194.8,205.3z M312,167.2
	c-4.8-1.8-10.2-2.6-16.1-2.6c-11,0-20.4,3-27.4,8.7c-0.9-0.7-1.9-1.4-2.8-2c-6.8-4.5-15.5-6.8-25.9-6.8c-6.8,0-13.2,1-18.8,3.1
	c-1.6-1.9-3.5-3.9-5.8-5.9h28.4v-6c7.1,5.5,15.8,8.1,27.1,8.1c15.7,0,25.1-5.4,30.2-9.9c0.3-0.3,0.6-0.5,0.9-0.8
	c3.1,2.5,6.5,4.6,10.3,6.3V167.2z M505.7,235.8c-23.9,0-33.3-16.1-38.9-25.7l-6.6-11.2l-60.1,31v-30.1c0-6.4,0-16.9-8.5-25.4
	c10.5-7.4,15.4-18.3,18.6-25.7l13.1-30.7l-7.3,56.4l49.5,26.2l7-6.4c7.3-6.7,15.6-14.3,33.1-14.3c18.6,0,32.6,11.9,32.6,27.8
	C538.3,221.6,527.1,235.8,505.7,235.8z"/>
<path class="st1" d="M529.5,311.7c-32.6,0-62.7-8.8-82.5-24.2c-20.2-15.6-28.4-35.2-34.4-49.6L411,234l45.9-23.7l2.3,4
	c6.1,10.5,17.6,30.1,46.5,30.1c20.1,0,41.5-13,41.5-37c0-20.9-17.8-36.6-41.5-36.6c-21,0-31,9.2-39.1,16.6l-2.4,2.2l-38.6-20.4
	l19.7-152.6l184.4,0l-4.4,66.1l-97.2,0l-3.7,29.8c5.7-0.9,12.6-1.7,21.2-1.7c29.5,0,56.2,9.6,75.3,27.1
	c19.1,17.6,29.7,42.2,29.7,69.4C650.5,259.3,613.1,311.7,529.5,311.7z"/>
<path class="st0" d="M418.6,236.8c5.9,14.3,13.6,31.7,32,45.9c18.8,14.6,47.6,23,78.8,23c57.3,0,115.1-30.4,115.1-98.3
	c0-25.5-9.9-48.6-27.8-65c-17.9-16.5-43.3-25.5-71.2-25.5c-11.4,0-19.6,1.4-26.2,2.7l-2,0.4l5.4-43.2h96.9l3.6-54.2H450.6
	l-18.5,143.3l31.2,16.5c8.3-7.6,19.8-17.5,42.4-17.5c26.6,0,47.4,18.7,47.4,42.6c0,20.8-16.6,43-47.4,43
	c-31.5,0-44.7-21.1-51.2-32.1L418.6,236.8z"/>
<path class="st0" d="M112.2,69.6h27.2v53.1c0,6.6-0.4,13.7-5.9,19.8c-5.6,6.2-13.9,8.4-22.3,8.4c-2.9,0-9.1-0.1-14.9-3.1
	c-7.4-3.9-11-10-12.6-13l9.8-6.9c1.5,2.3,4.5,7,10.2,7c1.8,0,3.9-0.4,5.8-2.3c2.2-2.2,2.7-4.8,2.7-10.2V69.6z"/>
<path class="st0" d="M202.4,135.1c-2.8,4-10.6,14.8-28.2,14.8c-20.2,0-32.4-12.8-32.4-30.7c0-18,12.4-31,31.2-31
	c7.8,0,13.8,2.2,17.8,4.8c13.8,8.6,13.8,23.9,13.8,31.3h-38.9c0.5,3.3,1.3,7,5.4,9.9c3,2.2,6.2,2.9,9.7,2.9c7.8,0,12.5-4.7,15.3-7.5
	L202.4,135.1z M181.6,112.6c-0.2-3.5-0.6-11.5-8.2-11.5c-7,0-8,7.5-8.6,11.5H181.6z"/>
<path class="st0" d="M230.1,100.4c3.4-7.1,8.6-11.1,16.5-11.1c1.5,0,2.5,0.1,3.8,0.3v20.1c-3.4-2.1-6.3-3.9-11.1-3.9
	c-5.1,0-7.4,1.8-9.2,3.2v39.1l-23.8,0V91.1h23.8V100.4z"/>
<path class="st0" d="M251.8,131.4c2.2,2.6,6.4,7.6,14.6,7.6c5.1,0,8.4-2.6,8.4-5.8c0-4.2-4.7-5.4-6.9-6.2c-3.2-0.9-6.5-1.7-9.5-2.8
	c-2.7-1-11.6-4.5-11.6-16c0-11.3,9.1-20,25.8-20c17.3,0,21.7,9.5,23.5,13.5l-7.2,4.2c-2.4-3-5.2-6.5-11.7-6.5
	c-4.9,0-7.4,2.9-7.4,5.6c0,3.9,4.4,4.9,7.4,5.6c6.8,1.6,21.1,4.9,21.1,19.5c0,9.5-7.6,20.2-27.7,20.2c-15.9,0-21.2-6-26.6-14.1
	L251.8,131.4z"/>
<path class="st0" d="M360.5,135.1c-2.8,4-10.6,14.8-28.2,14.8c-20.2,0-32.4-12.8-32.4-30.7c0-18,12.4-31,31.2-31
	c7.8,0,13.8,2.2,17.8,4.8c13.8,8.6,13.8,23.9,13.8,31.3h-38.9c0.5,3.3,1.3,7,5.4,9.9c3,2.2,6.2,2.9,9.7,2.9c7.8,0,12.5-4.7,15.3-7.5
	L360.5,135.1z M339.7,112.6c-0.2-3.5-0.6-11.5-8.2-11.5c-7,0-8,7.5-8.6,11.5L339.7,112.6z"/>
<path class="st0" d="M356.9,91.1h25.2c3.2,10.4,6.9,21.9,8.8,31.5c2.7-9.8,3.4-11.9,10.3-31.5h19.1l-22.2,52
	c-3,6.8-7,15.7-15.3,21.1c-8.3,5.3-18.5,5.3-25.3,5.2v-9c11.9-0.8,16.1-8,21.2-17.1L356.9,91.1z"/>
<path class="st0" d="M212.9,223.4c-3.4,4.5-12.7,16.5-35,16.5c-26.1,0-39-19-39-37.7c0-17.5,12.5-39.8,41.5-39.8
	c19,0,27.2,9.9,32.2,15.9l-10.1,7.8c-3-3.8-7.1-8.6-15.7-8.6c-14.6,0-20,12.6-20,23.2c0,14.3,8.9,22.4,19.5,22.4
	c9.3,0,15.4-5.9,17.9-8.2L212.9,223.4z"/>
<path class="st0" d="M267.9,237.9h-24v-7.6c-2.9,3.9-7.2,9.3-17.6,9.3c-12.1,0-18.9-8.6-18.9-18.8c0-12.6,10.1-19.7,22.6-19.7
	c6.3,0,10.7,1.5,13.9,2.5c0-3.3-0.1-8-4.2-11.4c-2.9-2.4-6-2.5-7.7-2.5c-7.3,0-11.6,4.3-14.6,7.3l-7.1-5.9
	c5.1-5.7,12.5-13.3,29.4-13.3c11.4,0,16.7,3.3,18.6,4.6c9.5,6,9.6,14.6,9.6,20.9V237.9z M243.9,213.4c-1.9-0.4-3.2-0.7-5.2-0.7
	c-6.4,0-8.2,4.2-8.2,7c0,3.1,2.2,6.2,6,6.2c3.4,0,5.4-1.9,7.4-4V213.4z"/>
<path class="st0" d="M275,221c2.2,2.6,6.4,7.6,14.6,7.6c5.1,0,8.4-2.6,8.4-5.8c0-4.2-4.7-5.4-6.9-6.2c-3.2-0.9-6.5-1.7-9.5-2.8
	c-2.7-1-11.6-4.5-11.6-16c0-11.3,9.1-20,25.8-20c17.3,0,21.7,9.5,23.5,13.5l-7.2,4.2c-2.4-3-5.2-6.5-11.7-6.5
	c-4.9,0-7.4,2.9-7.4,5.6c0,3.9,4.4,4.9,7.4,5.6c6.8,1.6,21.1,4.9,21.1,19.5c0,9.5-7.6,20.2-27.7,20.2c-15.9,0-21.2-6-26.6-14.1
	L275,221z"/>
<path class="st0" d="M325.4,164.3h24v24.5c3.2-3.9,8.3-10.2,19.2-10.2c5.2,0,9.5,1.7,12.4,4.1c5.8,4.8,5.8,11.4,5.8,17.1v38.2h-23.9
	v-34c0-3.3-0.1-9.4-6.5-9.4c-4,0-5.7,2.3-7.1,4.1v39.3h-24V164.3z"/>
<path class="st1" d="M398,86.6l-1.1,3c-2.6,7.4-4.3,12.3-5.6,16.1c-1.3-4.5-2.7-9.1-4.1-13.6l-1.7-5.6h-35.4l1.1,2.6
	c-3.9-2.5-10.6-5.4-20.1-5.4c-13.7,0-24.7,6.2-30.7,16.2l-0.1-0.2c-1.8-4-7.2-16.1-27.6-16.1c-6.9,0-12.9,1.4-17.8,4v-1.9l-3.8-0.6
	c-1.6-0.3-2.9-0.4-4.5-0.4c-4.6,0-8.5,1.1-11.9,3.3v-1.5h-32.9V97c-2.2-2.8-4.9-5.5-8.5-7.7c-3.9-2.5-10.6-5.5-20.3-5.5
	c-12.5,0-22.7,5.2-29,13.7V65.1h-36.3v57.3c0,5.1-0.6,6.2-1.3,7c-0.8,0.7-1.5,1-2.7,1c-3,0-4.9-2.5-6.4-4.9l-2.6-4l-17,12l2,3.6
	c1.5,2.8,5.7,10.3,14.5,14.9c7,3.6,14.3,3.6,17,3.6c10.9,0,19.7-3.4,25.7-10c2.3-2.6,3.9-5.3,4.9-8.1c6,10.6,17.6,17,32.4,17
	c14.1,0,22.7-6.3,27.6-11.4v9.7h32.9v-41.3c1-0.6,2.4-1,4.6-1c1.2,0,2.2,0.2,3.2,0.4c0.5,5.1,2.8,10.9,9.4,15.1l-14.3,9l2.6,3.9
	c5.7,8.5,12.4,16.1,30.4,16.1c16.7,0,26.5-7,30.3-15.6c6.3,9.5,17.3,15.2,31.4,15.2c20,0,28.9-12.6,31.9-16.7l2.4-3.4l-6.3-5.5h6.9
	v-1.2l6.4,15.3c-4.6,8-7.9,12.3-16.4,12.9l-4.2,0.3v3.5h-32.1v24.8c-3.4-5-10.3-11.2-25-11.2c-12.7,0-22.5,4.9-27.2,12.9
	c-1.7-2.7-4.2-5.3-7.8-7.6c-5.3-3.6-12.4-5.4-21.1-5.4c-9.3,0-16.1,2.2-21.3,5.1l-2.6-3c-5.1-6.1-14.6-17.4-35.6-17.4
	c-18.3,0-29.1,8.1-35.1,14.9c-7,8-11,18.8-11,29.5c0,11,3.9,21.2,10.9,28.9c8,8.7,19.3,13.3,32.6,13.3c14,0,23.5-4.4,29.6-9.1
	c4.1,5.5,10.8,8.8,18.8,8.8c5.7,0,9.9-1.4,13.1-3.3v1.6l33.1,0v-3.8c4.8,3.6,11.3,5.9,21.3,5.9c13.1,0,22-4.3,27-10.4v8.3h33.1
	v-42.3c0.8-0.8,1.4-1.1,2.5-1.1c1.2,0,1.9,0,1.9,4.8v38.5h33v-42.7c0-6.1,0-14.5-7.5-20.6c-4-3.3-9.4-5.1-15.3-5.1
	c-6.3,0-11.1,1.9-14.6,4.2v-4.3l3.5,0.1c0.9,0,1.8,0,2.8,0c6.6,0,16.6-0.6,25-6c9.4-6,13.8-15.8,17-22.9l25-58.6H398z M173.4,105.7
	c1.2,0,2.3,0.2,3,2.4h-5.9C171.2,106.2,172.2,105.7,173.4,105.7z M180.8,132.7c-2.9,0-5-0.6-7.1-2.1c-0.7-0.5-1.3-1.1-1.8-1.6
	l18.4,0C188,130.9,185,132.7,180.8,132.7z M266.4,134.4c-6.1,0-9.1-3.6-11.1-6l-1-1.2c0.8,0.4,1.6,0.8,2.5,1.1
	c2.3,0.9,4.7,1.5,7,2.1c0.9,0.3,1.9,0.5,2.8,0.8l0.4,0.1c2,0.6,3.1,1.2,3.3,1.7C270.3,133.3,269.2,134.4,266.4,134.4z M278.3,106.2
	c-1-0.2-3.1-0.8-3.9-1.3c0.2-0.3,1-1,2.8-1c3.8,0,5.5,1.5,7.6,4.1C282.3,107.1,280,106.6,278.3,106.2z M297.5,106.1
	c-0.9,2.4-1.5,5-1.8,7.7c-1.7-1.4-3.5-2.6-5.3-3.6L297.5,106.1z M331.5,105.7c1.2,0,2.3,0.2,3,2.4h-5.9
	C329.3,106.2,330.3,105.7,331.5,105.7z M338.9,132.7c-2.9,0-5-0.6-7.1-2.1c-0.7-0.5-1.3-1.1-1.8-1.6h18.4
	C346.1,130.9,343.1,132.7,338.9,132.7z M186.2,218.6c-8.9,0-15-7.2-15-17.9c0-1.9,0.4-18.6,15.5-18.6c6.2,0,9.1,3,12.2,6.9l2.8,3.5
	l4.5-3.5l-2.3,2.6l10.6,8.9c-3.9,2.3-7,5.5-9,9.4l-1.2-1.2l-3.4,3.1C198.4,214,193.4,218.6,186.2,218.6z M224.2,197.1
	c2.1-1.6,4.5-2.8,7.9-2.8c1.6,0,3.3,0.2,4.8,1.5c0.6,0.5,1,1,1.4,1.6c-2.4-0.5-5.1-0.8-8.2-0.8C228,196.6,226,196.7,224.2,197.1z
	 M239.4,220c-1.1,1-1.8,1.3-2.9,1.3c-1.4,0-1.5-1.1-1.5-1.6c0-1.1,0.6-2.4,3.7-2.4c0.2,0,0.5,0,0.7,0V220z M272.4,217.3v-3.6
	c0.8,0.7,1.7,1.3,2.6,1.9L272.4,217.3z M289.6,224.1c-6.1,0-9.1-3.6-11.1-6l-1-1.2c0.8,0.4,1.6,0.8,2.5,1.1c2.3,0.9,4.7,1.5,7,2.1
	c0.9,0.3,1.9,0.5,2.8,0.8l0.4,0.1c2,0.6,3.1,1.2,3.3,1.7C293.5,223,292.4,224.1,289.6,224.1z M301.5,195.9c-1-0.2-3.1-0.8-3.9-1.3
	c0.2-0.3,1-1,2.8-1c3.8,0,5.5,1.5,7.6,4.1C305.5,196.8,303.1,196.3,301.5,195.9z M313.5,199.9l7.3-4.2v9.7
	C318.7,203.1,316.1,201.3,313.5,199.9z"/>
<path class="st0" d="M112.2,69.6h27.2v53.1c0,6.6-0.4,13.7-5.9,19.8c-5.6,6.2-13.9,8.4-22.3,8.4c-2.9,0-9.1-0.1-14.9-3.1
	c-7.4-3.9-11-10-12.6-13l9.8-6.9c1.5,2.3,4.5,7,10.2,7c1.8,0,3.9-0.4,5.8-2.3c2.2-2.2,2.7-4.8,2.7-10.2V69.6z"/>
<path class="st0" d="M202.4,135.1c-2.8,4-10.6,14.8-28.2,14.8c-20.2,0-32.4-12.8-32.4-30.7c0-18,12.4-31,31.2-31
	c7.8,0,13.8,2.2,17.8,4.8c13.8,8.6,13.8,23.9,13.8,31.3h-38.9c0.5,3.3,1.3,7,5.4,9.9c3,2.2,6.2,2.9,9.7,2.9c7.8,0,12.5-4.7,15.3-7.5
	L202.4,135.1z M181.6,112.6c-0.2-3.5-0.6-11.5-8.2-11.5c-7,0-8,7.5-8.6,11.5H181.6z"/>
<path class="st0" d="M230.1,100.4c3.4-7.1,8.6-11.1,16.5-11.1c1.5,0,2.5,0.1,3.8,0.3v20.1c-3.4-2.1-6.3-3.9-11.1-3.9
	c-5.1,0-7.4,1.8-9.2,3.2v39.1l-23.8,0V91.1h23.8V100.4z"/>
<path class="st0" d="M251.8,131.4c2.2,2.6,6.4,7.6,14.6,7.6c5.1,0,8.4-2.6,8.4-5.8c0-4.2-4.7-5.4-6.9-6.2c-3.2-0.9-6.5-1.7-9.5-2.8
	c-2.7-1-11.6-4.5-11.6-16c0-11.3,9.1-20,25.8-20c17.3,0,21.7,9.5,23.5,13.5l-7.2,4.2c-2.4-3-5.2-6.5-11.7-6.5
	c-4.9,0-7.4,2.9-7.4,5.6c0,3.9,4.4,4.9,7.4,5.6c6.8,1.6,21.1,4.9,21.1,19.5c0,9.5-7.6,20.2-27.7,20.2c-15.9,0-21.2-6-26.6-14.1
	L251.8,131.4z"/>
<path class="st0" d="M360.5,135.1c-2.8,4-10.6,14.8-28.2,14.8c-20.2,0-32.4-12.8-32.4-30.7c0-18,12.4-31,31.2-31
	c7.8,0,13.8,2.2,17.8,4.8c13.8,8.6,13.8,23.9,13.8,31.3h-38.9c0.5,3.3,1.3,7,5.4,9.9c3,2.2,6.2,2.9,9.7,2.9c7.8,0,12.5-4.7,15.3-7.5
	L360.5,135.1z M339.7,112.6c-0.2-3.5-0.6-11.5-8.2-11.5c-7,0-8,7.5-8.6,11.5L339.7,112.6z"/>
<path class="st0" d="M356.9,91.1h25.2c3.2,10.4,6.9,21.9,8.8,31.5c2.7-9.8,3.4-11.9,10.3-31.5h19.1l-22.2,52
	c-3,6.8-7,15.7-15.3,21.1c-8.3,5.3-18.5,5.3-25.3,5.2v-9c11.9-0.8,16.1-8,21.2-17.1L356.9,91.1z"/>
<path class="st0" d="M212.9,223.4c-3.4,4.5-12.7,16.5-35,16.5c-26.1,0-39-19-39-37.7c0-17.5,12.5-39.8,41.5-39.8
	c19,0,27.2,9.9,32.2,15.9l-10.1,7.8c-3-3.8-7.1-8.6-15.7-8.6c-14.6,0-20,12.6-20,23.2c0,14.3,8.9,22.4,19.5,22.4
	c9.3,0,15.4-5.9,17.9-8.2L212.9,223.4z"/>
<path class="st0" d="M267.9,237.9h-24v-7.6c-2.9,3.9-7.2,9.3-17.6,9.3c-12.1,0-18.9-8.6-18.9-18.8c0-12.6,10.1-19.7,22.6-19.7
	c6.3,0,10.7,1.5,13.9,2.5c0-3.3-0.1-8-4.2-11.4c-2.9-2.4-6-2.5-7.7-2.5c-7.3,0-11.6,4.3-14.6,7.3l-7.1-5.9
	c5.1-5.7,12.5-13.3,29.4-13.3c11.4,0,16.7,3.3,18.6,4.6c9.5,6,9.6,14.6,9.6,20.9V237.9z M243.9,213.4c-1.9-0.4-3.2-0.7-5.2-0.7
	c-6.4,0-8.2,4.2-8.2,7c0,3.1,2.2,6.2,6,6.2c3.4,0,5.4-1.9,7.4-4V213.4z"/>
<path class="st0" d="M275,221c2.2,2.6,6.4,7.6,14.6,7.6c5.1,0,8.4-2.6,8.4-5.8c0-4.2-4.7-5.4-6.9-6.2c-3.2-0.9-6.5-1.7-9.5-2.8
	c-2.7-1-11.6-4.5-11.6-16c0-11.3,9.1-20,25.8-20c17.3,0,21.7,9.5,23.5,13.5l-7.2,4.2c-2.4-3-5.2-6.5-11.7-6.5
	c-4.9,0-7.4,2.9-7.4,5.6c0,3.9,4.4,4.9,7.4,5.6c6.8,1.6,21.1,4.9,21.1,19.5c0,9.5-7.6,20.2-27.7,20.2c-15.9,0-21.2-6-26.6-14.1
	L275,221z"/>
<path class="st0" d="M325.4,164.3h24v24.5c3.2-3.9,8.3-10.2,19.2-10.2c5.2,0,9.5,1.7,12.4,4.1c5.8,4.8,5.8,11.4,5.8,17.1v38.2h-23.9
	v-34c0-3.3-0.1-9.4-6.5-9.4c-4,0-5.7,2.3-7.1,4.1v39.3h-24V164.3z"/>
<path class="st2" d="M524.1,286.3c36.6,0,66.4-30,66.4-67.1c0-37.1-29.7-67.1-66.4-67.1c-36.6,0-66.4,30-66.4,67.1
	C457.7,256.3,487.4,286.3,524.1,286.3z"/>
<radialGradient id="SVGID_1_" cx="1949.1221" cy="78.3879" r="67.1434" gradientTransform="matrix(1.2658 -0.4516 0.4606 1.2912 -1980.8352 976.778)" gradientUnits="userSpaceOnUse">
	<stop  offset="0.3348" style="stop-color:#FFFFFF"/>
	<stop  offset="0.5968" style="stop-color:#FFFFFF"/>
	<stop  offset="0.6574" style="stop-color:#FCFCFC"/>
	<stop  offset="0.6998" style="stop-color:#F3F3F3"/>
	<stop  offset="0.7366" style="stop-color:#E4E4E4"/>
	<stop  offset="0.7702" style="stop-color:#CECECE"/>
	<stop  offset="0.8017" style="stop-color:#B1B1B1"/>
	<stop  offset="0.8312" style="stop-color:#8F8F8F"/>
	<stop  offset="0.8593" style="stop-color:#676767"/>
	<stop  offset="0.8598" style="stop-color:#666666"/>
</radialGradient>
<circle class="st3" cx="512.3" cy="211.1" r="66.2"/>
<radialGradient id="SVGID_2_" cx="1381.3026" cy="-32.9087" r="30.7015" gradientTransform="matrix(1.6338 0 0 1.6485 -1723.3317 255.3131)" gradientUnits="userSpaceOnUse">
	<stop  offset="1.866902e-02" style="stop-color:#D6DE23"/>
	<stop  offset="0.3263" style="stop-color:#8BC53F"/>
	<stop  offset="0.4254" style="stop-color:#86C03F"/>
	<stop  offset="0.5471" style="stop-color:#77B33F"/>
	<stop  offset="0.68" style="stop-color:#5E9C3F"/>
	<stop  offset="0.7159" style="stop-color:#56953F"/>
	<stop  offset="0.8595" style="stop-color:#2C7F3C"/>
	<stop  offset="1" style="stop-color:#006838"/>
</radialGradient>
<path class="st4" d="M541.1,194.3c8.4,0.1,16,1.3,20.4-0.1c4.2-1.3,4.9-2.8,4.4-4.4c-6.1-20.1-24.1-32.5-32.7-29
	c-2.1,0.8-2.6,5.4-2.6,5.4s0,13.8,0.7,25.8c-1.1-9.5-5.4-33.3-21.8-33.3c-11.7,0-35.1,15.4-36.6,29.2c-1.3,11.6,8.3,11.2,12.7,10.9
	c4.8-0.3,18.1-2.3,34.3-3.7c-18.2,5.3-30.3,12-37.3,19.8c-8.5,9.5,5.1,35.3,19.2,36.7c14.1,1.4,25.1-16.6,26.2-17.4
	c-6.2,21.5-16.1,26.3-16.1,26.3c3.1,3.8,7.2,2.5,8.5,2.1c6.5-3.5,9.8-18.3,11.4-30.1c0.9,6.9,13.1,18.7,23.6,12.2
	c13.4-10.1,14.9-23.3,13.6-31.5C567.5,203.4,557.8,198.4,541.1,194.3z"/>
<path class="st5" d="M520.1,183.5l-0.6-2.3l2.9-3.4l0.8-2l2.3-1.8l1.7,0.5l11.8,6.7l0.1,2.7l-1.7,4.8l-0.6,0.2l-0.6-0.3l0.2-0.2
	l0.4-1.7l-0.1-0.5l-0.1,0.7l-0.6,1.5l-0.2,1.6l-0.6,1.4l-0.5,0.3l-0.5-0.5l-0.2,0.4l1.6,1.5l1.3,0.5l0.2-0.2l0.4,0l0.8,0.8l0.4-0.2
	l0-0.6l-0.5-1.1l0.8,0c0,0,2.7,3.4,0.3,11.1l-0.6-0.3l-0.2-0.7l-0.3,0l-0.3,5.9l-0.6,0.5l-0.6,3.5l-1.3,1.5l0,1.1l-0.8,0.3l-0.4-0.6
	l-0.7,1.1l0.6,0.6l-0.7,1.1l0.6,0.3v0.2l0.5,0.3l-0.1,0.7l-1.1,1.2l-1.8,1.3l-2.4,2.5l-2.1,3.3l0,0.8l-0.8,1l-2,1.1l-0.8,0l1.1-1.9
	l0-1l0.8-0.8l0-1.6l-2.3-1.2l-1.6-0.1l-1.7-1.9l-0.9,0l-0.5,0.3l-4.6-4.2l-0.1-1.2l0.5-1.7l-0.5-0.8l0.6-2.8l1-1.2l0.7-0.1l1.5-1.5
	l0.5,0.1l2-1.1l1.4-2.6l0.8-0.2l1.9-2l1.4-0.5l1.6-1.1l0-1l-1.3-1.4l-0.3-0.6l-1.2-1.1l-1.4-2.5l-0.2-0.6l-0.4,0.4l-0.9-0.1
	l-0.8-0.7l0-1.7l-0.2-1l-1.7-1.1l0.4-1.2l-0.6-2.4l1.3-0.5l0.1-1.3L520.1,183.5z"/>
<polygon class="st5" points="539.2,204 538.8,204.6 538.8,209 537.9,211.9 538.3,211.8 539.6,209.1 539.6,204.6 "/>
<polygon class="st5" points="538.1,212.5 537.3,212.5 536.7,213.9 535.5,216 535.3,216.6 535.3,217.3 535.6,217.4 535.9,216.8 
	536.1,216.1 "/>
<path class="st0" d="M260.9,277.8l-8-14.6l11.7,0l4.2,8.6l9.5-8.6l12.9,0l-17.8,15.2l8.5,15.4l-11.8,0l-4.6-9.5l-10.5,9.5l-12.9,0
	L260.9,277.8z"/>
<path class="st0" d="M301.7,270.7l-11.6,0l2.5-7.4l33.8,0l-2.5,7.4l-11.6,0l-7.8,23.2l-10.7,0L301.7,270.7z"/>
<path class="st0" d="M330.8,263.2l14.5,0c6.4,0,10.7,1.1,13.3,3.2c2,1.6,3,3.8,3,6.3c0,5.1-3.7,9.2-11.6,10.9l5.9,10.3l-11.8,0
	l-5.1-9.3l-4.7,0l-3.1,9.3l-10.7,0L330.8,263.2z M342.6,277.9c4.8,0,7.9-1.6,7.9-4.2c0-0.8-0.3-1.5-1-2.1c-0.9-0.7-2.5-1.1-4.7-1.1
	l-5.8,0l-2.5,7.4L342.6,277.9z"/>
<path class="st0" d="M383.3,263l10.5,0l6,30.9l-11.2,0l-0.9-5.5l-14.9,0l-4.6,5.5l-11.6,0L383.3,263z M386.7,281.8l-1.4-8.8
	l-7.2,8.8L386.7,281.8z"/>
<path d="M647.3,287.6h-2v-7.9h-2.9V278h7.8v1.7h-2.9V287.6z"/>
<path d="M660.5,287.6h-1.9v-8h0l-1.8,8h-2l-1.7-8h0v8h-1.9V278h2.9l1.7,7.5h0l1.7-7.5h2.9V287.6z"/>
<path class="st0" d="M186.4,271.9l4.3,0l-0.5,9.1l5.7-9.1l3.7,0l-0.1,9.2l5.4-9.1l4.2,0l-9.5,15.1l-3.8,0l0.1-9.2l-5.9,9.2l-3.8,0
	L186.4,271.9z"/>
<path class="st0" d="M211.9,271.9l4.2,0l-4.8,15l-4.2,0L211.9,271.9z M213.6,266.5l4.5,0l-1.2,3.8l-4.5,0L213.6,266.5z"/>
<path class="st0" d="M217.1,284.2c0-0.6,0.2-1.2,0.4-1.9l2.2-6.8l-1.8,0l1.2-3.6l1.8,0l1.2-3.8l4.2,0l-1.2,3.8l3.5,0l-1.2,3.6
	l-3.5,0l-2,6.3c-0.1,0.2-0.1,0.5-0.1,0.7c0,0.6,0.3,0.9,1.1,0.9c0.7,0,1.5-0.2,2.2-0.5l-1.2,3.6c-0.9,0.4-2,0.6-3.1,0.6
	C218.2,287.2,217.1,285.9,217.1,284.2z"/>
<path class="st0" d="M233.5,266.5l4.2,0l-2.2,7c1.1-1,2.5-1.8,4.2-1.8c2.7,0,4.3,1.6,4.2,4.4c0,0.8-0.4,1.9-0.7,2.8l-2.6,8l-4.2,0
	l2.6-8.2c0.1-0.4,0.2-1,0.3-1.3c0.1-1.2-0.7-1.8-2-1.8c-1.7,0-2.8,1.2-3.4,3l-2.7,8.4l-4.2,0L233.5,266.5z"/>
</svg>
